<svg width="30" height="30" viewBox="0 0 30 30" fill="none" xmlns="http://www.w3.org/2000/svg">
<path d="M10.6456 26.4521C9.06663 26.6406 7.94192 26.4149 7.14041 25.9655C6.21877 25.4487 5.82246 24.6911 5.63992 24.1825C5.57228 24.0131 5.37237 23.6176 5.10983 23.2184C4.97868 23.019 4.84023 22.8315 4.70503 22.6788C4.56646 22.5223 4.45696 22.4318 4.38605 22.3913C4.22123 22.3024 4.04197 22.1837 3.88377 22.0505C3.73758 21.9273 3.54777 21.7411 3.44139 21.5075C3.38504 21.3838 3.33154 21.2015 3.36861 20.9904C3.40864 20.7624 3.53908 20.5865 3.69794 20.4699C3.96552 20.2734 4.32979 20.23 4.65942 20.2251M10.6456 26.4521L29.375 15C29.3741 18.0121 28.4287 20.948 26.6719 23.3947C24.9237 25.8293 22.4596 27.6575 19.6234 28.6248C19.5254 28.6408 19.4667 28.6345 19.438 28.6282C19.422 28.6247 19.4131 28.6207 19.4092 28.6187C19.4052 28.6167 19.4034 28.6152 19.4025 28.6144C19.3989 28.6112 19.375 28.5813 19.375 28.5188C19.375 28.3517 19.3771 28.0626 19.3798 27.6747C19.3812 27.481 19.3828 27.2628 19.3844 27.0228C19.3891 26.305 19.3938 25.3988 19.3938 24.3938C19.3938 23.4559 19.2027 22.685 18.893 22.0867C20.279 21.8386 21.6893 21.3703 22.8313 20.4125C24.2997 19.1808 25.225 17.2274 25.225 14.2125C25.225 12.5454 24.6801 11.1594 23.7698 10.0446C23.9857 9.31407 24.2346 7.82873 23.4928 5.97413L23.3845 5.70341L23.1075 5.61244L22.9125 6.20625C23.1075 5.61244 23.1069 5.61224 23.1063 5.61204L23.105 5.61164L23.1024 5.6108L23.0969 5.60906L23.0843 5.60527C23.0753 5.60263 23.0649 5.59977 23.0533 5.59677C23.03 5.59079 23.0015 5.58429 22.9678 5.57798C22.9003 5.56535 22.8121 5.55357 22.7029 5.54806C22.484 5.53702 22.1837 5.55132 21.7979 5.63198C21.0694 5.78427 20.041 6.17188 18.6763 7.06649C17.5017 6.76325 16.2683 6.6125 15.0375 6.6125C13.8061 6.6125 12.5722 6.76339 11.3971 7.0669C10.0327 6.18063 9.00552 5.79382 8.27916 5.63944C7.89452 5.55769 7.59548 5.54142 7.37773 5.55044C7.26905 5.55494 7.18142 5.56572 7.1143 5.57747C7.08078 5.58334 7.05249 5.58943 7.02936 5.59506C7.0178 5.59788 7.00754 5.60058 6.99857 5.60308L6.9861 5.60665L6.98059 5.60831L6.97802 5.6091L6.97678 5.60948C6.97617 5.60967 6.97557 5.60986 7.1625 6.20625L6.97557 5.60986L6.69241 5.69861L6.5822 5.97413C5.84028 7.82894 6.08938 9.31439 6.30531 10.0448C5.39434 11.1627 4.85 12.5635 4.85 14.2125C4.85 17.2176 5.77025 19.1703 7.23292 20.4043C8.37186 21.3651 9.77966 21.8371 11.1661 22.0866C11.003 22.4019 10.8722 22.7659 10.7865 23.1776C10.4095 23.3135 9.91135 23.4294 9.39942 23.3823C8.77851 23.3252 8.08254 23.0266 7.5121 22.0679L7.51223 22.0678L7.505 22.0563C7.34288 21.7969 7.02123 21.3504 6.56117 20.9642C6.10248 20.5793 5.45471 20.2126 4.65942 20.2251M10.6456 26.4521C10.6474 26.8178 10.6503 27.1626 10.6532 27.4653C10.6546 27.6199 10.6561 27.7628 10.6574 27.8916C10.6603 28.1804 10.6625 28.3983 10.6625 28.5188C10.6625 28.5784 10.6405 28.6024 10.6387 28.604C10.6377 28.605 10.6352 28.607 10.6299 28.6097C10.6245 28.6124 10.6138 28.617 10.5956 28.6211C10.5634 28.6284 10.5028 28.6352 10.4053 28.622C4.71515 26.7027 0.625 21.342 0.625 15C0.625 7.05768 7.05768 0.625 15 0.625C22.9423 0.625 29.3749 7.05758 29.375 14.9998L10.6456 26.4521ZM4.65942 20.2251L4.66875 20.85M4.65942 20.2251C4.65922 20.2251 4.65903 20.2251 4.65883 20.2251L4.66875 20.85M4.66875 20.85C5.85 20.8313 6.69375 21.9375 6.975 22.3875L4.6875 21.8438C4.1625 21.5625 3.4125 20.8688 4.66875 20.85Z" fill="#A7A7A7" stroke="black" stroke-width="1.25"/>
</svg>
